<?xml version="1.0" encoding="UTF-8"?>
<svg xmlns="http://www.w3.org/2000/svg" id="Calque_2" data-name="Calque 2" viewBox="0 0 14.89 14.89">
  <defs>
    <style>
      .cls-1 {
        fill: #fff;
      }

      .cls-2 {
        fill: #1d1d1b;
      }
    </style>
  </defs>
  <g id="Calque_1-2" data-name="Calque 1">
    <g>
      <circle class="cls-1" cx="7.44" cy="7.44" r="7.44"></circle>
      <path class="cls-2" d="m8.15,7.96c-.15,0-.3.02-.45.02.02-.45.05-.9.08-1.35.06-.91.21-1.93-.17-2.78-.09-.2-.37-.24-.54-.14-.2.11-.23.35-.14.54.16.37.13.8.12,1.19-.01.47-.04.94-.07,1.41-.02.36-.04.72-.06,1.07-.17-.04-.34-.09-.48-.18-.2-.12-.38-.04-.49.1-.16.1-.26.31-.14.52l1.53,2.67c.2.35.72.18.74-.2.04-.81.2-1.6.46-2.38.08-.23-.13-.52-.38-.5Z"></path>
    </g>
  </g>
</svg>
